HIERARCHY
ROOT pelvis
{
	OFFSET 0.000000 0.000000 0.000000
	CHANNELS 6 Xposition Yposition Zposition Zrotation Xrotation Yrotation
	JOINT lfemur
	{
		OFFSET 11.446000 0.000000 0.000000
		CHANNELS 3 Zrotation Xrotation Yrotation
		JOINT ltibia
		{
			OFFSET 0.000000 -42.030400 0.000000
			CHANNELS 3 Zrotation Xrotation Yrotation
			JOINT lfoot
			{
				OFFSET 0.000000 -39.930200 0.000000
				CHANNELS 3 Zrotation Xrotation Yrotation
				JOINT ltoes
				{
					OFFSET 0.000000 0.000000 11.775800
					CHANNELS 3 Zrotation Xrotation Yrotation
					End Site
					{
					    OFFSET 0.000000 0.000000 5.000000
					}
				}
			}
		}
	}
	JOINT rfemur
	{
		OFFSET -11.446000 0.000000 0.000000
		CHANNELS 3 Zrotation Xrotation Yrotation
		JOINT rtibia
		{
			OFFSET 0.000000 -42.030400 0.000000
			CHANNELS 3 Zrotation Xrotation Yrotation
			JOINT rfoot
			{
				OFFSET 0.000000 -39.930200 0.000000
				CHANNELS 3 Zrotation Xrotation Yrotation
				JOINT rtoes
				{
					OFFSET 0.000000 0.000000 11.775800
					CHANNELS 3 Zrotation Xrotation Yrotation
					End Site
					{
					    OFFSET 0.000000 0.000000 5.000000
					}
				}
			}
		}
	}
	JOINT thorax
	{
		OFFSET 0.000000 11.255600 -5.000000
		CHANNELS 3 Zrotation Xrotation Yrotation
		JOINT head
		{
			OFFSET 0.000000 43.799300 0.000000
			CHANNELS 3 Zrotation Xrotation Yrotation
			End Site
			{
			    OFFSET 0.000000 5.000000 0.000000
			}
		}
		JOINT lclavicle
		{
			OFFSET 0.000000 39.863000 0.000000
			CHANNELS 3 Zrotation Xrotation Yrotation
			JOINT lhumerus
			{
				OFFSET 17.380600 4.958300 0.000000
				CHANNELS 3 Zrotation Xrotation Yrotation
				JOINT lradius
				{
					OFFSET 0.000000 -27.561300 0.000000
					CHANNELS 3 Zrotation Xrotation Yrotation
					JOINT lhand
					{
						OFFSET 0.000000 -26.933000 0.000000
						CHANNELS 3 Zrotation Xrotation Yrotation
						End Site
						{
						    OFFSET 0.000000 -5.000000 0.000000
						}
					}
				}
			}
		}
		JOINT rclavicle
		{
			OFFSET 0.000000 39.863000 0.000000
			CHANNELS 3 Zrotation Xrotation Yrotation
			JOINT rhumerus
			{
				OFFSET -17.380600 4.958300 0.000000
				CHANNELS 3 Zrotation Xrotation Yrotation
				JOINT rradius
				{
					OFFSET 0.000000 -27.561300 0.000000
					CHANNELS 3 Zrotation Xrotation Yrotation
					JOINT rhand
					{
						OFFSET 0.000000 -26.933000 0.000000
						CHANNELS 3 Zrotation Xrotation Yrotation
						End Site
						{
						    OFFSET 0.000000 -5.000000 0.000000
						}
					}
				}
			}
		}
	}
}
MOTION
Frames:	11
Frame Time:	0.0333333
58.087100 87.589500 7.163700 -2.308640 -2.986915 -90.705332 -6.366636 1.287128 -3.976702 -0.000000 12.970134 -0.000000 0.000000 3.304508 6.506154 0.000000 -1.417853 -0.000000 -4.600414 -1.266912 -6.306723 -0.000000 17.346183 -0.000000 0.000000 1.266527 -2.760831 -0.000000 -29.544966 -0.000000 -5.398798 1.605407 0.217627 15.547396 23.753384 -2.206928 2.439761 0.000000 4.362986 88.155466 -2.764500 61.911995 0.000000 -13.415039 -56.002094 4.781109 1.129061 -0.000000 -8.356525 -0.000000 -1.914977 -75.354265 4.695211 -68.854321 -0.000000 -21.870267 42.480725 -5.612287 -1.489606 0.000000 
58.124100 87.583200 7.132500 -2.302964 -2.955113 -90.744417 -6.301407 1.223070 -3.863705 0.000000 13.048315 -0.000000 -0.000000 3.292773 6.391087 -0.000000 -1.416240 0.000000 -4.547917 -1.346127 -6.281795 -0.000000 17.412666 -0.000000 -0.000000 1.242444 -2.717578 -0.000000 -29.544252 0.000000 -5.438185 1.674582 0.231728 15.523732 23.716376 -2.263214 2.467696 -0.000000 4.479856 87.949839 -2.829394 61.689972 0.000001 -13.455962 -55.692827 5.012551 1.027309 0.000000 -8.397428 -0.000000 -2.105575 -75.284910 4.423171 -69.047588 0.000001 -21.688550 42.610589 -5.566510 -1.505355 -0.000000 
58.170300 87.591100 7.082500 -2.346638 -2.883464 -90.740008 -6.187895 1.147727 -3.792310 -0.000000 13.224458 -0.000000 -0.000000 3.264443 6.296793 0.000000 -1.419845 0.000000 -4.448005 -1.241797 -6.401920 -0.000000 17.230375 -0.000000 -0.000000 1.329532 -2.631061 -0.000000 -29.544874 -0.000000 -5.448960 1.806143 0.191366 15.423335 23.769599 -2.081042 2.611660 -0.000000 4.565820 87.606461 -2.886683 61.761708 -0.000001 -13.559257 -55.377002 4.844253 1.355953 -0.000000 -8.276537 -0.000000 -2.050352 -75.376642 4.574642 -68.694232 0.000001 -21.669351 42.603921 -5.548828 -1.511143 0.000000 
58.261800 87.598400 7.048900 -2.266695 -2.862991 -90.803313 -6.153133 0.945360 -3.796595 -0.000000 13.357790 -0.000000 0.000000 3.284184 6.328461 -0.000000 -1.421394 0.000000 -4.414285 -1.428698 -6.428306 -0.000000 17.293144 -0.000000 0.000000 1.328233 -2.540804 0.000000 -29.544522 -0.000000 -5.461007 1.885730 0.194292 15.278062 23.705018 -1.834720 2.491412 0.000000 4.853109 87.596564 -3.375242 62.670622 -0.000001 -13.140722 -55.575288 4.725110 1.094689 0.000000 -8.149026 0.000000 -2.100028 -75.504625 4.530087 -68.707422 -0.000001 -21.627038 42.380730 -5.614308 -1.489371 0.000000 
58.368400 87.590100 7.001100 -2.188079 -2.871260 -90.847469 -6.115167 0.688576 -3.610714 -0.000000 13.568047 -0.000000 0.000000 3.270056 6.202875 -0.000000 -1.420126 -0.000000 -4.380966 -1.647028 -6.299616 -0.000000 17.424310 -0.000000 -0.000000 1.237477 -2.600069 -0.000000 -29.544546 -0.000000 -5.519996 1.948038 0.201280 15.232200 23.693975 -1.692228 2.316899 0.000000 4.876413 87.573827 -3.360732 62.827769 -0.000000 -13.004219 -55.594464 4.688795 1.320652 0.000000 -8.109320 0.000000 -2.145075 -75.496009 4.479933 -68.697412 -0.000001 -21.526471 42.407957 -5.513187 -1.523472 -0.000000 
58.443600 87.590300 6.915300 -2.230357 -2.868915 -90.902976 -6.072683 0.762351 -3.795761 0.000000 13.412074 -0.000000 0.000000 3.312263 6.397307 -0.000000 -1.424360 -0.000000 -4.310351 -1.707798 -6.165480 -0.000000 17.502454 0.000000 0.000000 1.314282 -2.683034 -0.000000 -29.544167 0.000000 -5.622420 2.085863 0.168818 15.275584 23.641264 -1.689488 2.191421 0.000000 4.849018 87.428391 -3.060848 62.451420 -0.000001 -13.232560 -54.970946 4.683359 1.170129 0.000000 -7.917872 0.000000 -2.072164 -75.616592 4.589172 -68.260715 -0.000000 -21.496289 42.091442 -5.719298 -1.453774 0.000000 
58.566900 87.583000 6.814900 -2.166350 -2.887525 -90.837957 -6.007742 0.566036 -3.740254 0.000000 13.503953 -0.000000 0.000000 3.336556 6.272398 0.000000 -1.423012 0.000000 -4.263639 -1.918062 -6.211685 0.000000 17.655862 -0.000000 -0.000000 1.202481 -2.696729 -0.000000 -29.543525 -0.000000 -5.750123 2.247430 0.060191 15.310160 23.573065 -1.663137 2.085793 0.000000 4.943259 87.348144 -3.134502 62.715757 -0.000001 -13.145244 -55.119970 4.916526 1.044768 -0.000000 -7.624776 -0.000000 -1.932260 -75.822152 4.876882 -67.944541 0.000001 -21.512922 41.827230 -5.742651 -1.446340 0.000000 
58.675600 87.595600 6.717500 -2.122309 -2.888472 -90.786316 -5.943847 0.500514 -3.896213 -0.000000 13.398153 0.000000 -0.000000 3.399171 6.334011 0.000000 -1.425336 -0.000000 -4.185949 -2.013718 -6.195381 -0.000000 17.630990 -0.000000 -0.000000 1.330051 -2.775373 0.000000 -29.543071 0.000000 -5.840431 2.285064 -0.048851 15.267268 23.682850 -1.687068 1.988722 0.000000 4.767620 87.205738 -2.788512 62.426608 0.000001 -13.190654 -55.589374 5.148793 1.274449 -0.000000 -7.561372 0.000000 -1.684291 -75.740177 5.189224 -67.940410 0.000000 -21.515256 41.919476 -5.737193 -1.448192 0.000000 
58.774500 87.618500 6.598300 -2.108648 -2.859007 -90.597169 -5.833630 0.430919 -4.071407 -0.000000 13.362917 -0.000000 -0.000000 3.519587 6.354593 -0.000000 -1.427633 0.000000 -4.062793 -1.960678 -6.343345 0.000000 17.441187 -0.000000 0.000000 1.409702 -2.842185 -0.000000 -29.542739 -0.000000 -5.903929 2.402669 -0.197095 15.248310 23.748123 -1.659168 1.942502 -0.000000 4.726116 87.134796 -2.794103 62.550127 -0.000000 -13.117589 -55.430614 4.803403 0.892037 -0.000000 -7.388883 -0.000000 -1.664814 -75.801218 5.400425 -67.664759 -0.000000 -21.601988 42.141281 -5.702536 -1.460052 -0.000000 
58.858700 87.630300 6.460000 -2.040563 -2.843962 -90.505934 -5.714714 0.305819 -4.027776 0.000000 13.362441 0.000000 -0.000000 3.609821 6.259269 -0.000000 -1.430931 0.000000 -3.949991 -2.021897 -6.402398 -0.000000 17.359612 -0.000000 -0.000000 1.419082 -2.857085 -0.000000 -29.542511 0.000000 -5.941302 2.459304 -0.229809 15.142916 23.886007 -1.602080 1.853267 0.000000 4.604926 87.137265 -2.738786 62.668994 -0.000001 -13.115560 -55.113010 4.737945 0.748724 -0.000000 -7.617672 -0.000000 -1.722931 -75.445165 5.357986 -68.003804 0.000000 -21.636761 41.779214 -5.507713 -1.527271 0.000000 
58.917300 87.661800 6.314000 -1.967164 -2.808373 -90.387359 -5.560023 0.231620 -3.978039 0.000000 13.270682 -0.000000 0.000000 3.742198 6.071723 -0.000000 -1.434325 0.000000 -3.788357 -1.885003 -6.459980 -0.000000 16.899046 -0.000000 -0.000000 1.681767 -2.861425 -0.000000 -29.541930 0.000000 -6.002664 2.475516 -0.297646 15.143503 23.970849 -1.498741 1.868501 0.000000 4.609103 87.106251 -2.782620 62.502137 0.000000 -13.195353 -55.393542 4.968377 1.031188 -0.000000 -7.545144 -0.000000 -1.797932 -75.493116 5.281257 -68.244766 0.000001 -21.545724 41.833347 -5.195307 -1.633138 -0.000000 
